PathFileType	4	(X/Y/Z)	Patient4_TMGait_0pt6_01_left_21.trc.trc
DataRate	CameraRate	NumFrames	NumMarkers	Units	OrigDataRate	OrigDataStartFrame	OrigNumFrames
80.459770114942	80.459770114942	4	33	mm	80.459770114942	18	       141
Frame#	Time	Sacral			L.Shoulder			Chest			R.Shoulder			Neck			R.ASIS			L.ASIS			R.Thigh.Superior			R.Thigh.Lateral			R.Thigh.Inferior			R.Patella			L.Thigh.Superior			L.Thigh.Lateral			L.Thigh.Inferior			L.Patella			L.Shank.Superior			L.Shank.Lateral			L.Shank.Inferior			R.Shank.Superior			R.Shank.Lateral			R.Shank.Inferior			R.Heel			R.Midfoot.Superior			R.Midfoot.Lateral			R.Toe			L.Heel			L.Midfoot.Lateral			L.Midfoot.Superior			L.Toe			L.Elbow			L.Wrist			R.Elbow			R.Wrist			
		X1	Y1	Z1	X2	Y2	Z2	X3	Y3	Z3	X4	Y4	Z4	X5	Y5	Z5	X6	Y6	Z6	X7	Y7	Z7	X8	Y8	Z8	X9	Y9	Z9	X10	Y10	Z10	X11	Y11	Z11	X12	Y12	Z12	X13	Y13	Z13	X14	Y14	Z14	X15	Y15	Z15	X16	Y16	Z16	X17	Y17	Z17	X18	Y18	Z18	X19	Y19	Z19	X20	Y20	Z20	X21	Y21	Z21	X22	Y22	Z22	X23	Y23	Z23	X24	Y24	Z24	X25	Y25	Z25	X26	Y26	Z26	X27	Y27	Z27	X28	Y28	Z28	X29	Y29	Z29	X30	Y30	Z30	X31	Y31	Z31	X32	Y32	Z32	X33	Y33	Z33	

18	25.731285714286	687.239431886107	1012.637233162317	540.958519606326	850.116733409025	1436.435570560704	343.915390503958	973.550698240916	1364.638180292457	488.307747256299	915.991263090664	1439.454788490157	671.137803698757	851.158798381786	1494.076632973017	497.300112284490	919.726763890537	938.652909862939	631.702684989064	880.391324803716	965.037246452732	360.430409355398	921.228703100030	727.185339097972	600.962773326016	823.005751451055	631.459485163526	665.742636767103	881.448555768530	569.020580503274	581.641419857848	865.349897944981	484.758300928688	586.189947560658	958.378311271988	780.748121653222	393.568313112740	913.447799493091	652.956012867517	316.099237392476	1014.646027896768	595.694886948577	381.668099962601	1044.468244599544	534.565232774144	378.512749861655	1034.145379848160	462.669519696291	368.296945886301	981.461301187211	326.147898043579	319.178201228374	1077.038632275125	236.860383123695	376.714439109915	831.088450429616	399.330583413082	592.396723041006	752.693569069990	300.399040341943	652.703760777769	785.970253293230	204.003376571617	586.631426409841	641.945603917242	43.404583809603	551.734627298524	812.690527795571	96.143629945500	592.044287635741	723.074175464639	36.409753519483	628.149709657096	931.861944302564	41.379227688564	622.787162809868	1012.307234442239	48.610434295530	418.361262463169	1086.314885493007	59.909294775681	338.882366390774	1147.301186205925	145.885871836294	357.524190158305	1283.839291653572	131.861865234261	333.995057347356	737.118231281135	1094.747554712001	250.607447178432	712.754331461921	837.099339347459	269.853629095269	1047.305547177868	1129.606000345416	795.730933709052	1287.763177698572	1192.861161476556	750.821186963623	
19	25.743714285714	687.910135268117	1011.531669307277	539.291627318031	849.630394327686	1435.858366595970	342.699267813358	973.085837549147	1364.055207824275	487.078406742119	915.164552556508	1438.505924350195	669.871688594482	850.422790165190	1493.213415411645	496.222729009079	920.187905830359	938.073232448001	630.548544121530	881.438896007651	963.555324319518	359.001700292540	919.729968657413	726.027338387569	600.748661558397	820.108603950604	631.081717469085	665.298647995460	878.262662531409	567.831522391908	581.657256463255	861.289400368863	483.722449212964	586.136662786377	959.019180484434	778.787893516455	392.225622262582	912.120897049757	650.224932207085	316.506147558265	1014.101114236103	593.299820463860	380.660349792808	1042.794874296062	531.693682846715	378.546372478327	1032.273479125498	459.652964473963	368.845642013883	978.447064639571	323.382166111822	320.958225108240	1073.664554970404	233.861614120222	378.399203895805	826.283039914554	398.693078378765	592.326852701022	746.914999517852	300.526951537240	652.641152181700	779.489396889560	203.755677564428	586.700549981735	634.458240923933	43.517857946013	551.797678146104	805.257023113536	96.099051399917	592.186022617578	715.554331735915	36.361852934757	628.090730378102	924.343656603109	41.171214142517	622.897981800449	1007.630759174641	47.215021330135	421.623558892322	1080.780390759162	57.289644609056	341.267830190120	1143.309793556602	141.956719540792	359.154042111862	1279.130070317326	125.631524002202	334.034890267964	734.461172823408	1095.288085148333	249.652808110783	708.525294886540	837.727041658305	269.524382753675	1049.920116134152	1129.921048929869	792.830075066197	1288.927297216474	1198.036004311838	748.544532981573	
20	25.756142857143	688.799277688757	1010.223811925045	537.400152731210	849.127328245238	1435.089971122714	341.281665201347	972.565158675298	1363.456200578353	485.763621116488	914.074307281267	1437.480256291638	668.487606542118	849.535297262656	1492.213372536040	494.972740133745	920.821925811824	937.357681313069	629.434094924782	882.905505209408	961.905816199115	357.588733348635	918.602479957519	724.766106382850	600.518396251871	817.590598593827	630.597266908303	664.768111657472	875.505966513421	566.547490651307	581.603110265376	857.617826255500	482.527385578798	585.936618158660	960.197532261368	776.585277851059	390.915556722868	911.191527882482	647.333258155839	316.991842838622	1013.839430959630	590.627290317183	379.885124628513	1041.113281025872	528.256866088667	378.896403370350	1030.118438076742	456.013236822779	369.639946667314	974.492779683667	320.360676075066	322.663702846006	1068.633295524002	230.016550676470	380.229607142768	821.819161493916	397.911104276942	592.132957155538	741.413590803835	300.581819581244	652.472715832341	773.145877955597	203.413722929450	586.677036337908	626.975814817742	43.618907148543	551.856732362724	797.822912026452	96.053674128878	592.294969157938	708.043612470625	36.318156140676	628.034400499357	916.824110630610	40.967208901514	623.014241098721	1000.044761802617	45.492431064153	424.556860022726	1072.511759569095	54.096695559450	343.460609962485	1137.098306912381	136.875180696797	360.989972411398	1272.123105904212	117.356246343510	334.411804547736	732.276423367826	1095.462800003385	248.459820644338	705.361159256978	837.926585281498	268.833265379915	1051.792747963130	1129.872304008426	789.851445702341	1289.632959654382	1201.887095763323	746.423316047653	
21	25.768571428571	689.882096630184	1008.741077029946	535.303685331633	848.633310808964	1434.126752580991	339.651999478682	972.009153247297	1362.844664809959	484.358654406094	912.750959526588	1436.396939467079	666.982381687723	848.535656888393	1491.093773480933	493.530355195116	921.621237425436	936.495350481726	628.366098154489	884.752628500875	960.137233209835	356.216343341920	917.869304553829	723.401405513776	600.250975904883	815.492684260858	629.990637329564	664.121813922653	873.217956857405	565.166977302056	581.435820818624	854.383920560867	481.154789807989	585.547390304413	961.800785475589	774.134388837667	389.697914398552	910.649748561208	644.387762237091	317.459652696045	1013.746400239969	587.727066208197	379.400109942835	1039.357318714604	524.389247807216	379.551071244219	1027.722382942341	451.933605225572	370.603801403855	969.891999528813	317.165832426210	324.183709956325	1062.401246024541	225.576427838295	382.111382134518	817.730685759536	396.973121991288	591.780794813622	736.222550047787	300.564380783290	652.185792913986	766.949372532464	202.978103364154	586.547810898813	619.497192285053	43.730507450294	551.916882620523	790.394439476274	96.013914590193	592.369345474456	700.545980034670	36.292385887231	627.989602753734	909.309863287969	40.758466975563	623.136798672314	990.307003185280	43.585503451389	427.050612379748	1062.294111934447	50.568266772690	345.387112934165	1129.287627302060	130.989944204134	362.970437402036	1263.475265585766	107.608309240925	335.158008305641	730.596301809178	1095.239833720584	247.016175286553	703.267429033258	837.670629274348	267.744384205999	1052.891183160095	1129.426788080704	786.841953175822	1289.885829724518	1204.415962352274	744.470134276583	
